<svg width="32" height="32" viewBox="0 0 32 32" fill="none" xmlns="http://www.w3.org/2000/svg">
<path d="M0 10C0 4.47715 4.47715 0 10 0H22C27.5228 0 32 4.47715 32 10V22C32 27.5228 27.5228 32 22 32H10C4.47715 32 0 27.5228 0 22V10Z" fill="white" fill-opacity="0.9"/>
<path d="M20.6667 17.3333C21.66 16.36 22.6667 15.1933 22.6667 13.6667C22.6667 12.6942 22.2804 11.7616 21.5928 11.0739C20.9051 10.3863 19.9725 10 19 10C17.8267 10 17 10.3333 16 11.3333C15 10.3333 14.1734 10 13 10C12.0276 10 11.0949 10.3863 10.4073 11.0739C9.71968 11.7616 9.33337 12.6942 9.33337 13.6667C9.33337 15.2 10.3334 16.3667 11.3334 17.3333L16 22L20.6667 17.3333Z" stroke="#0A0A0A" stroke-width="1.33333" stroke-linecap="round" stroke-linejoin="round"/>
</svg>
