<svg width="32" height="32" viewBox="0 0 32 32" fill="none" xmlns="http://www.w3.org/2000/svg">
<path d="M0 10C0 4.47715 4.47715 0 10 0H22C27.5228 0 32 4.47715 32 10V22C32 27.5228 27.5228 32 22 32H10C4.47715 32 0 27.5228 0 22V10Z" fill="#D4183D"/>
<path d="M20.6666 17.3333C21.6599 16.36 22.6666 15.1933 22.6666 13.6667C22.6666 12.6942 22.2803 11.7616 21.5926 11.0739C20.905 10.3863 19.9724 10 18.9999 10C17.8266 10 16.9999 10.3333 15.9999 11.3333C14.9999 10.3333 14.1733 10 12.9999 10C12.0275 10 11.0948 10.3863 10.4072 11.0739C9.71956 11.7616 9.33325 12.6942 9.33325 13.6667C9.33325 15.2 10.3333 16.3667 11.3333 17.3333L15.9999 22L20.6666 17.3333Z" fill="white" stroke="white" stroke-width="1.33333" stroke-linecap="round" stroke-linejoin="round"/>
</svg>
