<svg width="111" height="18" viewBox="0 0 111 18" fill="none" xmlns="http://www.w3.org/2000/svg">
<path d="M3.26633e-05 2.50568V0.238636H13.5086V2.50568H8.06253V17.6932H5.43753V2.50568H3.26633e-05ZM19.4327 17.9574C18.1429 17.9574 17.0321 17.6818 16.1003 17.1307C15.1742 16.5739 14.4583 15.7926 13.9526 14.7869C13.4526 13.7756 13.2026 12.5909 13.2026 11.233C13.2026 9.89205 13.4526 8.71023 13.9526 7.6875C14.4583 6.66477 15.1628 5.86648 16.0662 5.29261C16.9753 4.71875 18.0378 4.43182 19.2537 4.43182C19.9924 4.43182 20.7083 4.55398 21.4015 4.7983C22.0946 5.04261 22.7168 5.42614 23.2679 5.94886C23.8191 6.47159 24.2537 7.15057 24.5719 7.9858C24.8901 8.81534 25.0492 9.82386 25.0492 11.0114V11.9148H14.6429V10.0057H22.552C22.552 9.33523 22.4157 8.74148 22.1429 8.22443C21.8702 7.7017 21.4867 7.28977 20.9924 6.98864C20.5037 6.6875 19.9299 6.53693 19.2708 6.53693C18.5549 6.53693 17.9299 6.71307 17.3958 7.06534C16.8674 7.41193 16.4583 7.86648 16.1685 8.42898C15.8844 8.9858 15.7424 9.59091 15.7424 10.2443V11.7358C15.7424 12.6108 15.8958 13.3551 16.2026 13.9688C16.5151 14.5824 16.9497 15.0511 17.5066 15.375C18.0634 15.6932 18.714 15.8523 19.4583 15.8523C19.9412 15.8523 20.3816 15.7841 20.7793 15.6477C21.177 15.5057 21.5208 15.2955 21.8105 15.017C22.1003 14.7386 22.3219 14.3949 22.4753 13.9858L24.8872 14.4205C24.6941 15.1307 24.3475 15.7528 23.8475 16.2869C23.3532 16.8153 22.731 17.2273 21.981 17.5227C21.2367 17.8125 20.3872 17.9574 19.4327 17.9574ZM32.7908 17.9574C31.5238 17.9574 30.4328 17.6705 29.5181 17.0966C28.609 16.517 27.9101 15.7188 27.4215 14.7017C26.9328 13.6847 26.6885 12.5199 26.6885 11.2074C26.6885 9.87784 26.9385 8.70455 27.4385 7.6875C27.9385 6.66477 28.6431 5.86648 29.5522 5.29261C30.4613 4.71875 31.5323 4.43182 32.7652 4.43182C33.7595 4.43182 34.6459 4.61648 35.4243 4.9858C36.2027 5.34943 36.8306 5.8608 37.3078 6.51989C37.7908 7.17898 38.0777 7.94886 38.1686 8.82955H35.6885C35.5522 8.21591 35.2397 7.6875 34.751 7.24432C34.2681 6.80114 33.6203 6.57955 32.8078 6.57955C32.0976 6.57955 31.4755 6.76705 30.9414 7.14205C30.413 7.51136 30.001 8.03977 29.7056 8.72727C29.4101 9.40909 29.2624 10.2159 29.2624 11.1477C29.2624 12.1023 29.4073 12.9261 29.697 13.6193C29.9868 14.3125 30.3959 14.8494 30.9243 15.2301C31.4584 15.6108 32.0863 15.8011 32.8078 15.8011C33.2908 15.8011 33.7283 15.7131 34.1203 15.5369C34.5181 15.3551 34.8505 15.0966 35.1175 14.7614C35.3902 14.4261 35.5806 14.0227 35.6885 13.5511H38.1686C38.0777 14.3977 37.8022 15.1534 37.3419 15.8182C36.8817 16.483 36.2652 17.0057 35.4925 17.3864C34.7255 17.767 33.8249 17.9574 32.7908 17.9574ZM42.8421 9.92045V17.6932H40.2938V0.238636H42.808V6.73295H42.9699C43.2767 6.02841 43.7455 5.46875 44.3762 5.05398C45.0069 4.6392 45.8307 4.43182 46.8478 4.43182C47.7455 4.43182 48.5296 4.61648 49.2 4.9858C49.8762 5.35511 50.3989 5.90625 50.7682 6.6392C51.1432 7.36648 51.3307 8.27557 51.3307 9.36648V17.6932H48.7824V9.6733C48.7824 8.71307 48.5353 7.96875 48.0409 7.44034C47.5466 6.90625 46.8591 6.6392 45.9784 6.6392C45.3762 6.6392 44.8364 6.76705 44.3591 7.02273C43.8875 7.27841 43.5154 7.65341 43.2426 8.14773C42.9756 8.63636 42.8421 9.22727 42.8421 9.92045ZM63.8557 4.82386C63.7648 4.01705 63.3898 3.39205 62.7307 2.94886C62.0716 2.5 61.2421 2.27557 60.2421 2.27557C59.5262 2.27557 58.9068 2.3892 58.3841 2.61648C57.8614 2.83807 57.4551 3.14489 57.1654 3.53693C56.8813 3.9233 56.7392 4.36364 56.7392 4.85795C56.7392 5.27273 56.8358 5.63068 57.029 5.93182C57.2279 6.23295 57.4864 6.4858 57.8046 6.69034C58.1284 6.8892 58.475 7.05682 58.8443 7.19318C59.2137 7.32386 59.5688 7.43182 59.9097 7.51705L61.6142 7.96023C62.1711 8.09659 62.7421 8.28125 63.3273 8.5142C63.9125 8.74716 64.4551 9.05398 64.9551 9.43466C65.4551 9.81534 65.8586 10.2869 66.1654 10.8494C66.4779 11.4119 66.6341 12.0852 66.6341 12.8693C66.6341 13.858 66.3784 14.7358 65.8671 15.5028C65.3614 16.2699 64.6256 16.875 63.6597 17.3182C62.6995 17.7614 61.5375 17.983 60.1739 17.983C58.8671 17.983 57.7364 17.7756 56.7818 17.3608C55.8273 16.946 55.0801 16.358 54.5404 15.5966C54.0006 14.8295 53.7023 13.9205 53.6455 12.8693H56.2875C56.3387 13.5 56.5432 14.0256 56.9012 14.446C57.2648 14.8608 57.7279 15.1705 58.2904 15.375C58.8586 15.5739 59.4807 15.6733 60.1568 15.6733C60.9012 15.6733 61.5631 15.5568 62.1426 15.3239C62.7279 15.0852 63.1881 14.7557 63.5233 14.3352C63.8586 13.9091 64.0262 13.4119 64.0262 12.8437C64.0262 12.3267 63.8784 11.9034 63.583 11.5739C63.2932 11.2443 62.8983 10.9716 62.3983 10.7557C61.904 10.5398 61.3443 10.3494 60.7193 10.1847L58.6568 9.62216C57.2591 9.24148 56.1512 8.68182 55.333 7.94318C54.5205 7.20455 54.1142 6.22727 54.1142 5.01136C54.1142 4.00568 54.387 3.12784 54.9324 2.37784C55.4779 1.62784 56.2165 1.04545 57.1483 0.630682C58.0801 0.210227 59.1313 -4.76837e-07 60.3017 -4.76837e-07C61.4836 -4.76837e-07 62.5262 0.207386 63.4296 0.622159C64.3387 1.03693 65.0546 1.60795 65.5773 2.33523C66.1 3.05682 66.3728 3.88636 66.3955 4.82386H63.8557ZM75.0874 4.60227V6.64773H67.9368V4.60227H75.0874ZM69.8544 1.46591H72.4027V13.8494C72.4027 14.3438 72.4766 14.7159 72.6243 14.9659C72.772 15.2102 72.9624 15.3778 73.1953 15.4688C73.434 15.554 73.6925 15.5966 73.9709 15.5966C74.1755 15.5966 74.3544 15.5824 74.5078 15.554C74.6613 15.5256 74.7806 15.5028 74.8658 15.4858L75.326 17.5909C75.1783 17.6477 74.9681 17.7045 74.6953 17.7614C74.4226 17.8239 74.0817 17.858 73.6726 17.8636C73.0022 17.875 72.3772 17.7557 71.7976 17.5057C71.2181 17.2557 70.7493 16.8693 70.3914 16.3466C70.0334 15.8239 69.8544 15.1676 69.8544 14.3778V1.46591ZM82.6799 17.9574C81.4526 17.9574 80.3816 17.6761 79.4668 17.1136C78.552 16.5511 77.8418 15.7642 77.3361 14.7528C76.8304 13.7415 76.5776 12.5597 76.5776 11.2074C76.5776 9.84943 76.8304 8.66193 77.3361 7.64489C77.8418 6.62784 78.552 5.83807 79.4668 5.27557C80.3816 4.71307 81.4526 4.43182 82.6799 4.43182C83.9071 4.43182 84.9782 4.71307 85.8929 5.27557C86.8077 5.83807 87.5179 6.62784 88.0236 7.64489C88.5293 8.66193 88.7821 9.84943 88.7821 11.2074C88.7821 12.5597 88.5293 13.7415 88.0236 14.7528C87.5179 15.7642 86.8077 16.5511 85.8929 17.1136C84.9782 17.6761 83.9071 17.9574 82.6799 17.9574ZM82.6884 15.8182C83.4838 15.8182 84.1429 15.608 84.6657 15.1875C85.1884 14.767 85.5748 14.2074 85.8248 13.5085C86.0804 12.8097 86.2083 12.0398 86.2083 11.1989C86.2083 10.3636 86.0804 9.59659 85.8248 8.89773C85.5748 8.19318 85.1884 7.62784 84.6657 7.2017C84.1429 6.77557 83.4838 6.5625 82.6884 6.5625C81.8873 6.5625 81.2225 6.77557 80.6941 7.2017C80.1713 7.62784 79.7821 8.19318 79.5265 8.89773C79.2765 9.59659 79.1515 10.3636 79.1515 11.1989C79.1515 12.0398 79.2765 12.8097 79.5265 13.5085C79.7821 14.2074 80.1713 14.767 80.6941 15.1875C81.2225 15.608 81.8873 15.8182 82.6884 15.8182ZM91.0266 17.6932V4.60227H93.4897V6.68182H93.626C93.8647 5.97727 94.2851 5.4233 94.8874 5.01989C95.4953 4.6108 96.1828 4.40625 96.9499 4.40625C97.109 4.40625 97.2965 4.41193 97.5124 4.4233C97.734 4.43466 97.9073 4.44886 98.0323 4.46591V6.90341C97.93 6.875 97.7482 6.84375 97.4868 6.80966C97.2255 6.76989 96.9641 6.75 96.7027 6.75C96.1005 6.75 95.5635 6.87784 95.0919 7.13352C94.626 7.38352 94.2567 7.73295 93.984 8.18182C93.7113 8.625 93.5749 9.13068 93.5749 9.69886V17.6932H91.0266ZM104.811 17.9574C103.521 17.9574 102.41 17.6818 101.478 17.1307C100.552 16.5739 99.8364 15.7926 99.3307 14.7869C98.8307 13.7756 98.5807 12.5909 98.5807 11.233C98.5807 9.89205 98.8307 8.71023 99.3307 7.6875C99.8364 6.66477 100.541 5.86648 101.444 5.29261C102.353 4.71875 103.416 4.43182 104.632 4.43182C105.37 4.43182 106.086 4.55398 106.78 4.7983C107.473 5.04261 108.095 5.42614 108.646 5.94886C109.197 6.47159 109.632 7.15057 109.95 7.9858C110.268 8.81534 110.427 9.82386 110.427 11.0114V11.9148H100.021V10.0057H107.93C107.93 9.33523 107.794 8.74148 107.521 8.22443C107.248 7.7017 106.865 7.28977 106.37 6.98864C105.882 6.6875 105.308 6.53693 104.649 6.53693C103.933 6.53693 103.308 6.71307 102.774 7.06534C102.245 7.41193 101.836 7.86648 101.547 8.42898C101.263 8.9858 101.12 9.59091 101.12 10.2443V11.7358C101.12 12.6108 101.274 13.3551 101.581 13.9688C101.893 14.5824 102.328 15.0511 102.885 15.375C103.442 15.6932 104.092 15.8523 104.836 15.8523C105.319 15.8523 105.76 15.7841 106.157 15.6477C106.555 15.5057 106.899 15.2955 107.189 15.017C107.478 14.7386 107.7 14.3949 107.853 13.9858L110.265 14.4205C110.072 15.1307 109.726 15.7528 109.226 16.2869C108.731 16.8153 108.109 17.2273 107.359 17.5227C106.615 17.8125 105.765 17.9574 104.811 17.9574Z" fill="#0A0A0A"/>
</svg>
